<mxfile host="app.diagrams.net" modified="2023-04-21T19:39:35.030Z" agent="Mozilla/5.0 (Windows NT 10.0; Win64; x64) AppleWebKit/537.36 (KHTML, like Gecko) Chrome/111.0.0.0 Safari/537.36" etag="fQ3o4dCDgWE-EKIXWCuw" version="21.2.1" type="github">
  <diagram name="Page-1" id="oKIJaCUSzDugbbUu65ux">
    <mxGraphModel dx="2954" dy="1067" grid="1" gridSize="10" guides="1" tooltips="1" connect="1" arrows="1" fold="1" page="1" pageScale="1" pageWidth="850" pageHeight="1100" math="0" shadow="0">
      <root>
        <mxCell id="0" />
        <mxCell id="1" parent="0" />
        <mxCell id="pI11yDbxdKJLs-j87kLT-2" style="edgeStyle=orthogonalEdgeStyle;rounded=0;orthogonalLoop=1;jettySize=auto;html=1;" edge="1" parent="1" source="pI11yDbxdKJLs-j87kLT-1" target="pI11yDbxdKJLs-j87kLT-3">
          <mxGeometry relative="1" as="geometry">
            <mxPoint x="510" y="410" as="targetPoint" />
          </mxGeometry>
        </mxCell>
        <mxCell id="pI11yDbxdKJLs-j87kLT-1" value="" style="ellipse;whiteSpace=wrap;html=1;aspect=fixed;" vertex="1" parent="1">
          <mxGeometry x="345" y="450" width="80" height="80" as="geometry" />
        </mxCell>
        <mxCell id="pI11yDbxdKJLs-j87kLT-5" value="" style="edgeStyle=orthogonalEdgeStyle;rounded=0;orthogonalLoop=1;jettySize=auto;html=1;" edge="1" parent="1" source="pI11yDbxdKJLs-j87kLT-3" target="pI11yDbxdKJLs-j87kLT-4">
          <mxGeometry relative="1" as="geometry" />
        </mxCell>
        <mxCell id="pI11yDbxdKJLs-j87kLT-3" value="" style="rounded=1;whiteSpace=wrap;html=1;" vertex="1" parent="1">
          <mxGeometry x="460" y="360" width="120" height="60" as="geometry" />
        </mxCell>
        <mxCell id="pI11yDbxdKJLs-j87kLT-4" value="" style="triangle;whiteSpace=wrap;html=1;rounded=1;" vertex="1" parent="1">
          <mxGeometry x="690" y="350" width="60" height="80" as="geometry" />
        </mxCell>
      </root>
    </mxGraphModel>
  </diagram>
</mxfile>
